<?xml version="1.0" encoding="utf-8"?>
<!-- Generator: Adobe Illustrator 21.0.1, SVG Export Plug-In . SVG Version: 6.00 Build 0)  -->
<svg version="1.1" id="Layer_1" xmlns="http://www.w3.org/2000/svg" xmlns:xlink="http://www.w3.org/1999/xlink" x="0px" y="0px"
	 viewBox="0 0 705.7 141.6" style="enable-background:new 0 0 705.7 141.6;" xml:space="preserve">
<style type="text/css">
	.st0{fill:#ABABAB;}
	.st1{fill:#FFFFFF;}
</style>
<g>
	<path d="M66.9,4c1.2,0,2.1,1.1,2.3,2.3l24.2,126.5c0.4,1.9-0.5,3.9-2.5,3.9H62.3c-1.1,0-2.1-0.7-2.3-1.8l-3.5-26.5
		c-0.2-0.9-0.9-1.4-1.8-1.4h-9.6c-0.7,0-1.4,0.7-1.6,1.8l-3.4,26c-0.2,1.2-1.4,1.9-2.3,1.9H8.7c-1.6,0-2.5-1.2-2.1-3L30.2,6.1
		C30.4,5.3,31.3,4,32.4,4H66.9z M51.3,70.7c-0.4-2.5-0.7-4.1-1.2-4.1s-0.9,1.2-1.2,4.1l-2.3,16.8c-0.2,0.9,0.2,1.8,1.1,1.8
		c5.7,0,6.2,0,6-1.6L51.3,70.7z"/>
	<path d="M97.1,7c0-1.8,0.9-3,2.5-3h41.2c8.1,0,34.3,5.8,34.3,39.3c0,16.5-14.7,32.7-31.7,32.7c-8.7,0-9.6,0-9.6,2.1v56.1
		c0,1.4-1.1,2.5-3,2.5h-31c-1.6,0-2.8-1.4-2.8-3.2V7z M133.9,53.2c0,0.7,0.5,1.9,1.8,1.9c2.7,0,3.7-2.3,3.7-5.8v-7.3
		c0-2.8-1.4-4.8-3.7-4.8c-0.5,0-0.9,0-1.2,0.2c-0.4,0.2-0.5,0.9-0.5,1.4V53.2z"/>
	<path d="M340.2,136.7c-0.7,0-1.4-0.9-1.4-1.6V5.8c0-0.9,0.5-1.8,1.4-1.8h47.4c0.9,0,1.6,0.7,1.8,1.8l5.3,35.2
		c0.2,1.2,0.5,1.8,0.9,1.8c0.4,0,0.7-0.7,0.7-1.9L400.5,6c0.2-1.1,0.9-1.9,1.9-1.9h49.2c1.2,0,1.9,0.7,1.9,1.9v129
		c0,1.1-0.9,1.8-1.9,1.8h-32c-1.1,0-1.9-0.7-1.9-1.9V79.4c0-1.4-0.2-1.9-0.5-1.9c-0.4,0-0.7,0.7-1.2,3.5l-9.2,54.3
		c-0.2,1.1-1.1,1.4-1.9,1.4h-20c-0.9,0-1.6-0.7-1.9-1.9l-8.1-50.6c-0.5-3-1.2-3.5-1.8-3.5c-0.5,0-0.9,0.9-0.9,2.3v51.8
		c0,1.2-0.5,1.9-1.8,1.9H340.2z"/>
	<path d="M460.6,6.3c0-1.1,1.1-2.3,2.3-2.3h62.8c1.1,0,1.8,0.9,1.8,1.9v31.8c0,1.1-0.9,1.8-1.9,1.8H496c-0.7,0-1.2,0.5-1.2,1.2v9.9
		c0,0.7,0.7,1.2,1.2,1.2h14c0.7,0,1.2,0.5,1.2,1.2v32.2c0,0.9-0.7,1.6-1.4,1.6h-14.3c-0.7,0-1.2,0.5-1.2,1.4v10.4
		c0,0.7,0.5,1.2,1.1,1.2h30.6c1.2,0,1.9,0.9,1.9,1.8v32.9c0,1.1-0.9,1.9-1.9,1.9h-63.3c-1.1,0-1.9-1.1-1.9-2.3V6.3z"/>
	<path d="M534.9,6.3c0-1.2,0.9-2.3,1.9-2.3h29.9c1.2,0,2.1,0.7,2.5,2.1L579.9,46c0.4,1.4,0.9,2.1,1.2,2.1c0.5,0,1.1-0.7,1.1-2.3V6.3
		c0-1.2,0.9-2.3,2.1-2.3h26.5c1.4,0,2.3,1.2,2.3,2.5v127.9c0,1.2-0.7,2.3-1.9,2.3h-33.1c-0.7,0-1.8-0.7-1.9-1.8l-7.8-31.8
		c-0.4-1.8-1.1-2.5-1.6-2.5c-0.5,0-0.9,0.7-0.9,2.5v31.3c0,1.2-1.1,2.3-2.3,2.3h-26.9c-1.1,0-1.8-1.1-1.8-2.5V6.3z"/>
	<path d="M644.1,136.7c-1.2,0-2.5-1.1-2.5-2.5V41.9c0-1.2-1.1-2.1-2.3-2.1h-17.7c-1.1,0-2.3-1.4-2.3-2.5V5.8c0-1.1,0.5-1.8,1.6-1.8
		h75.7c1.2,0,2.3,0.7,2.3,2.1v31.1c0,1.4-1.1,2.5-2.5,2.5h-17.7c-1.2,0-2.1,0.9-2.1,2.5v92.2c0,1.2-1.1,2.3-2.5,2.3H644.1z"/>
</g>
<ellipse class="st0" cx="199.5" cy="98.7" rx="36.1" ry="38.4"/>
<path class="st0" d="M265.4,133.7h-20.8c-0.3,0-0.5-0.2-0.5-0.5V63c0-0.3,0.2-0.5,0.5-0.5h20.8c0.3,0,0.5,0.2,0.5,0.5v70.2
	C265.9,133.5,265.7,133.7,265.4,133.7z"/>
<path class="st0" d="M318,133.7h-21.7c-0.3,0-0.5-0.2-0.5-0.5V38.7c0-0.3,0.2-0.5,0.5-0.5H318c0.3,0,0.5,0.2,0.5,0.5v94.5
	C318.6,133.5,318.3,133.7,318,133.7z"/>
<path class="st0" d="M285.4,80.3V63c0-0.3,0.2-0.5,0.5-0.5h41.1c0.3,0,0.5,0.2,0.5,0.5v17.3c0,0.3-0.2,0.5-0.5,0.5H286
	C285.7,80.8,285.4,80.6,285.4,80.3z"/>
<path class="st0" d="M264.8,67.5c11.8-10.7,17.1-7.8,17.1-7.8c0.6,0.4,1.1,1.2,1.1,1.9v17.8c0,0.8-0.6,1.4-1.4,1.4
	c0,0-15.4-1.8-15.9,15"/>
<path class="st0" d="M240.3,133.7h-21.1c-0.3,0-0.5-0.2-0.5-0.5V63c0-0.3,0.2-0.5,0.5-0.5h21.1c0.3,0,0.5,0.2,0.5,0.5v70.2
	C240.8,133.5,240.6,133.7,240.3,133.7z"/>
<circle class="st1" cx="200.7" cy="97" r="17.9"/>
<circle class="st1" cx="49.1" cy="78" r="12.8"/>
<circle class="st1" cx="137" cy="40.6" r="14.8"/>
</svg>
